<svg width="500" height="400" viewBox="0 0 500 400" fill="none" xmlns="http://www.w3.org/2000/svg">
  <rect width="500" height="400" rx="16" fill="#F3F4F6" />
  <rect x="40" y="40" width="420" height="320" rx="8" fill="white" />
  <rect x="60" y="60" width="180" height="120" rx="4" fill="#818CF8" opacity="0.7" />
  <rect x="60" y="200" width="180" height="120" rx="4" fill="#34D399" opacity="0.7" />
  <rect x="260" y="60" width="180" height="120" rx="4" fill="#F59E0B" opacity="0.7" />
  <rect x="260" y="200" width="180" height="120" rx="4" fill="#6366F1" opacity="0.7" />
  <circle cx="150" cy="120" r="30" fill="white" />
  <circle cx="350" cy="120" r="30" fill="white" />
  <circle cx="150" cy="260" r="30" fill="white" />
  <circle cx="350" cy="260" r="30" fill="white" />
  <path d="M140 120L160 110V130L140 120Z" fill="#6366F1" />
  <rect x="340" y="110" width="20" height="20" rx="2" fill="#6366F1" />
  <path d="M135 260H145V270H155V260H165V250H135V260Z" fill="#6366F1" />
  <circle cx="350" cy="260" r="15" fill="#6366F1" />
</svg>

